<mxfile host="Electron" modified="2024-04-05T10:12:00.085Z" agent="Mozilla/5.0 (Windows NT 10.0; Win64; x64) AppleWebKit/537.36 (KHTML, like Gecko) draw.io/24.0.4 Chrome/120.0.6099.109 Electron/28.1.0 Safari/537.36" etag="WTu5E5cw0JP7D9YTqXFW" version="24.0.4" type="device">
  <diagram id="23iRSUPoRavnBvh4doch" name="Page-1">
    <mxGraphModel dx="4754" dy="2090" grid="1" gridSize="10" guides="1" tooltips="1" connect="1" arrows="1" fold="1" page="1" pageScale="1" pageWidth="1169" pageHeight="827" math="0" shadow="0">
      <root>
        <mxCell id="0" />
        <mxCell id="1" parent="0" />
        <mxCell id="W_i9PqQmD5wnqGEBUgdG-1" value="a" style="ellipse;aspect=fixed;fillColor=#e1d5e7;strokeColor=none;fontSize=25;labelBorderColor=none;labelBackgroundColor=none;horizontal=1;verticalAlign=middle;align=center;spacing=1;html=1;whiteSpace=wrap;" vertex="1" parent="1">
          <mxGeometry x="-20" y="200" width="40" height="40" as="geometry" />
        </mxCell>
        <mxCell id="W_i9PqQmD5wnqGEBUgdG-30" value="" style="endArrow=classic;html=1;rounded=0;exitX=0;exitY=1;exitDx=0;exitDy=0;entryX=1;entryY=0;entryDx=0;entryDy=0;fontSize=25;strokeColor=none;verticalAlign=middle;horizontal=1;labelBackgroundColor=none;spacing=1;" edge="1" parent="1" source="W_i9PqQmD5wnqGEBUgdG-1" target="W_i9PqQmD5wnqGEBUgdG-68">
          <mxGeometry width="50" height="50" relative="1" as="geometry">
            <mxPoint x="-460" y="400" as="sourcePoint" />
            <mxPoint x="-565.8578643763049" y="285.8578643763053" as="targetPoint" />
          </mxGeometry>
        </mxCell>
        <mxCell id="W_i9PqQmD5wnqGEBUgdG-68" value="b" style="ellipse;aspect=fixed;fillColor=#e1d5e7;strokeColor=none;fontSize=25;labelBorderColor=none;labelBackgroundColor=none;horizontal=1;verticalAlign=middle;align=center;spacing=1;html=1;whiteSpace=wrap;" vertex="1" parent="1">
          <mxGeometry x="-500" y="280" width="40" height="40" as="geometry" />
        </mxCell>
        <mxCell id="W_i9PqQmD5wnqGEBUgdG-78" value="" style="endArrow=classic;html=1;rounded=0;exitX=0;exitY=1;exitDx=0;exitDy=0;entryX=1;entryY=0;entryDx=0;entryDy=0;" edge="1" parent="1" source="W_i9PqQmD5wnqGEBUgdG-68" target="W_i9PqQmD5wnqGEBUgdG-82">
          <mxGeometry width="50" height="50" relative="1" as="geometry">
            <mxPoint x="7" y="380" as="sourcePoint" />
            <mxPoint x="-223" y="390" as="targetPoint" />
          </mxGeometry>
        </mxCell>
        <mxCell id="W_i9PqQmD5wnqGEBUgdG-79" value="" style="endArrow=classic;html=1;rounded=0;exitX=0;exitY=1;exitDx=0;exitDy=0;entryX=1;entryY=0;entryDx=0;entryDy=0;" edge="1" parent="1" source="W_i9PqQmD5wnqGEBUgdG-1" target="W_i9PqQmD5wnqGEBUgdG-68">
          <mxGeometry width="50" height="50" relative="1" as="geometry">
            <mxPoint x="-500" y="370" as="sourcePoint" />
            <mxPoint x="-450" y="320" as="targetPoint" />
          </mxGeometry>
        </mxCell>
        <mxCell id="W_i9PqQmD5wnqGEBUgdG-80" value="" style="endArrow=classic;html=1;rounded=0;exitX=1;exitY=1;exitDx=0;exitDy=0;entryX=0;entryY=0;entryDx=0;entryDy=0;" edge="1" parent="1" source="W_i9PqQmD5wnqGEBUgdG-1" target="W_i9PqQmD5wnqGEBUgdG-97">
          <mxGeometry width="50" height="50" relative="1" as="geometry">
            <mxPoint x="-500" y="370" as="sourcePoint" />
            <mxPoint x="-320" y="280" as="targetPoint" />
          </mxGeometry>
        </mxCell>
        <mxCell id="W_i9PqQmD5wnqGEBUgdG-82" value="d" style="ellipse;aspect=fixed;fillColor=#e1d5e7;strokeColor=none;fontSize=25;labelBorderColor=none;labelBackgroundColor=none;horizontal=1;verticalAlign=middle;align=center;spacing=1;html=1;whiteSpace=wrap;" vertex="1" parent="1">
          <mxGeometry x="-740" y="360" width="40" height="40" as="geometry" />
        </mxCell>
        <mxCell id="W_i9PqQmD5wnqGEBUgdG-85" value="i" style="ellipse;aspect=fixed;fillColor=#e1d5e7;strokeColor=none;fontSize=25;labelBorderColor=none;labelBackgroundColor=none;horizontal=1;verticalAlign=middle;align=center;spacing=1;html=1;whiteSpace=wrap;" vertex="1" parent="1">
          <mxGeometry x="-620" y="440" width="40" height="40" as="geometry" />
        </mxCell>
        <mxCell id="W_i9PqQmD5wnqGEBUgdG-87" value="" style="endArrow=classic;html=1;rounded=0;exitX=0;exitY=1;exitDx=0;exitDy=0;entryX=1;entryY=0;entryDx=0;entryDy=0;" edge="1" source="W_i9PqQmD5wnqGEBUgdG-82" target="W_i9PqQmD5wnqGEBUgdG-231" parent="1">
          <mxGeometry width="50" height="50" relative="1" as="geometry">
            <mxPoint x="-310" y="380" as="sourcePoint" />
            <mxPoint x="-895.8578643762689" y="445.85786437626894" as="targetPoint" />
          </mxGeometry>
        </mxCell>
        <mxCell id="W_i9PqQmD5wnqGEBUgdG-88" value="" style="endArrow=classic;html=1;rounded=0;exitX=1;exitY=1;exitDx=0;exitDy=0;entryX=0;entryY=0;entryDx=0;entryDy=0;" edge="1" source="W_i9PqQmD5wnqGEBUgdG-82" target="W_i9PqQmD5wnqGEBUgdG-85" parent="1">
          <mxGeometry width="50" height="50" relative="1" as="geometry">
            <mxPoint x="-310" y="380" as="sourcePoint" />
            <mxPoint x="-260" y="330" as="targetPoint" />
          </mxGeometry>
        </mxCell>
        <mxCell id="W_i9PqQmD5wnqGEBUgdG-89" value="e" style="ellipse;aspect=fixed;fillColor=#e1d5e7;strokeColor=none;fontSize=25;labelBorderColor=none;labelBackgroundColor=none;horizontal=1;verticalAlign=middle;align=center;spacing=1;html=1;whiteSpace=wrap;" vertex="1" parent="1">
          <mxGeometry x="-260" y="360" width="40" height="40" as="geometry" />
        </mxCell>
        <mxCell id="W_i9PqQmD5wnqGEBUgdG-92" value="k" style="ellipse;aspect=fixed;fillColor=#e1d5e7;strokeColor=none;fontSize=25;labelBorderColor=none;labelBackgroundColor=none;horizontal=1;verticalAlign=middle;align=center;spacing=1;html=1;whiteSpace=wrap;" vertex="1" parent="1">
          <mxGeometry x="-140" y="440" width="40" height="40" as="geometry" />
        </mxCell>
        <mxCell id="W_i9PqQmD5wnqGEBUgdG-94" value="" style="endArrow=classic;html=1;rounded=0;exitX=0;exitY=1;exitDx=0;exitDy=0;entryX=1;entryY=0;entryDx=0;entryDy=0;" edge="1" source="W_i9PqQmD5wnqGEBUgdG-89" target="W_i9PqQmD5wnqGEBUgdG-197" parent="1">
          <mxGeometry width="50" height="50" relative="1" as="geometry">
            <mxPoint x="147" y="380" as="sourcePoint" />
            <mxPoint x="-375.85786437626894" y="445.85786437626916" as="targetPoint" />
          </mxGeometry>
        </mxCell>
        <mxCell id="W_i9PqQmD5wnqGEBUgdG-95" value="" style="endArrow=classic;html=1;rounded=0;exitX=1;exitY=1;exitDx=0;exitDy=0;entryX=0;entryY=0;entryDx=0;entryDy=0;" edge="1" source="W_i9PqQmD5wnqGEBUgdG-89" target="W_i9PqQmD5wnqGEBUgdG-92" parent="1">
          <mxGeometry width="50" height="50" relative="1" as="geometry">
            <mxPoint x="147" y="380" as="sourcePoint" />
            <mxPoint x="197" y="330" as="targetPoint" />
          </mxGeometry>
        </mxCell>
        <mxCell id="W_i9PqQmD5wnqGEBUgdG-96" value="" style="endArrow=classic;html=1;rounded=0;entryX=0;entryY=0;entryDx=0;entryDy=0;exitX=1;exitY=1;exitDx=0;exitDy=0;" edge="1" parent="1" source="W_i9PqQmD5wnqGEBUgdG-68" target="W_i9PqQmD5wnqGEBUgdG-89">
          <mxGeometry width="50" height="50" relative="1" as="geometry">
            <mxPoint x="-43" y="380" as="sourcePoint" />
            <mxPoint x="-63" y="370" as="targetPoint" />
          </mxGeometry>
        </mxCell>
        <mxCell id="W_i9PqQmD5wnqGEBUgdG-97" value="c" style="ellipse;aspect=fixed;fillColor=#e1d5e7;strokeColor=none;fontSize=25;labelBorderColor=none;labelBackgroundColor=none;horizontal=1;verticalAlign=middle;align=center;spacing=1;html=1;whiteSpace=wrap;" vertex="1" parent="1">
          <mxGeometry x="460" y="280" width="40" height="40" as="geometry" />
        </mxCell>
        <mxCell id="W_i9PqQmD5wnqGEBUgdG-98" value="" style="endArrow=classic;html=1;rounded=0;exitX=0;exitY=1;exitDx=0;exitDy=0;entryX=1;entryY=0;entryDx=0;entryDy=0;" edge="1" source="W_i9PqQmD5wnqGEBUgdG-97" target="W_i9PqQmD5wnqGEBUgdG-99" parent="1">
          <mxGeometry width="50" height="50" relative="1" as="geometry">
            <mxPoint x="575.857864376384" y="310.0021356236156" as="sourcePoint" />
            <mxPoint x="-17" y="405.86" as="targetPoint" />
          </mxGeometry>
        </mxCell>
        <mxCell id="W_i9PqQmD5wnqGEBUgdG-99" value="f" style="ellipse;aspect=fixed;fillColor=#e1d5e7;strokeColor=none;fontSize=25;labelBorderColor=none;labelBackgroundColor=none;horizontal=1;verticalAlign=middle;align=center;spacing=1;html=1;whiteSpace=wrap;" vertex="1" parent="1">
          <mxGeometry x="220" y="360" width="40" height="40" as="geometry" />
        </mxCell>
        <mxCell id="W_i9PqQmD5wnqGEBUgdG-100" value="" style="endArrow=classic;html=1;rounded=0;exitX=0;exitY=1;exitDx=0;exitDy=0;entryX=1;entryY=0;entryDx=0;entryDy=0;fontSize=25;strokeColor=none;verticalAlign=middle;horizontal=1;labelBackgroundColor=none;spacing=1;" edge="1" source="W_i9PqQmD5wnqGEBUgdG-99" target="W_i9PqQmD5wnqGEBUgdG-101" parent="1">
          <mxGeometry width="50" height="50" relative="1" as="geometry">
            <mxPoint x="433" y="400" as="sourcePoint" />
            <mxPoint x="327.14213562369514" y="285.8578643763053" as="targetPoint" />
          </mxGeometry>
        </mxCell>
        <mxCell id="W_i9PqQmD5wnqGEBUgdG-101" value="l" style="ellipse;aspect=fixed;fillColor=#e1d5e7;strokeColor=none;fontSize=25;labelBorderColor=none;labelBackgroundColor=none;horizontal=1;verticalAlign=middle;align=center;spacing=1;html=1;whiteSpace=wrap;" vertex="1" parent="1">
          <mxGeometry x="100" y="440" width="40" height="40" as="geometry" />
        </mxCell>
        <mxCell id="W_i9PqQmD5wnqGEBUgdG-102" value="m" style="ellipse;aspect=fixed;fillColor=#e1d5e7;strokeColor=none;fontSize=25;labelBorderColor=none;labelBackgroundColor=none;horizontal=1;verticalAlign=middle;align=center;spacing=1;html=1;whiteSpace=wrap;" vertex="1" parent="1">
          <mxGeometry x="340" y="440" width="40" height="40" as="geometry" />
        </mxCell>
        <mxCell id="W_i9PqQmD5wnqGEBUgdG-104" value="" style="endArrow=classic;html=1;rounded=0;exitX=0;exitY=1;exitDx=0;exitDy=0;entryX=1;entryY=0;entryDx=0;entryDy=0;" edge="1" source="W_i9PqQmD5wnqGEBUgdG-99" target="W_i9PqQmD5wnqGEBUgdG-101" parent="1">
          <mxGeometry width="50" height="50" relative="1" as="geometry">
            <mxPoint x="393" y="370" as="sourcePoint" />
            <mxPoint x="443" y="320" as="targetPoint" />
          </mxGeometry>
        </mxCell>
        <mxCell id="W_i9PqQmD5wnqGEBUgdG-105" value="" style="endArrow=classic;html=1;rounded=0;exitX=1;exitY=1;exitDx=0;exitDy=0;entryX=0;entryY=0;entryDx=0;entryDy=0;" edge="1" source="W_i9PqQmD5wnqGEBUgdG-99" target="W_i9PqQmD5wnqGEBUgdG-102" parent="1">
          <mxGeometry width="50" height="50" relative="1" as="geometry">
            <mxPoint x="393" y="370" as="sourcePoint" />
            <mxPoint x="443" y="320" as="targetPoint" />
          </mxGeometry>
        </mxCell>
        <mxCell id="W_i9PqQmD5wnqGEBUgdG-106" value="g" style="ellipse;aspect=fixed;fillColor=#e1d5e7;strokeColor=none;fontSize=25;labelBorderColor=none;labelBackgroundColor=none;horizontal=1;verticalAlign=middle;align=center;spacing=1;html=1;whiteSpace=wrap;" vertex="1" parent="1">
          <mxGeometry x="700" y="360" width="40" height="40" as="geometry" />
        </mxCell>
        <mxCell id="W_i9PqQmD5wnqGEBUgdG-107" value="" style="endArrow=classic;html=1;rounded=0;exitX=0;exitY=1;exitDx=0;exitDy=0;entryX=1;entryY=0;entryDx=0;entryDy=0;fontSize=25;strokeColor=none;verticalAlign=middle;horizontal=1;labelBackgroundColor=none;spacing=1;" edge="1" source="W_i9PqQmD5wnqGEBUgdG-106" target="W_i9PqQmD5wnqGEBUgdG-108" parent="1">
          <mxGeometry width="50" height="50" relative="1" as="geometry">
            <mxPoint x="890" y="400" as="sourcePoint" />
            <mxPoint x="784.1421356236951" y="285.8578643763053" as="targetPoint" />
          </mxGeometry>
        </mxCell>
        <mxCell id="W_i9PqQmD5wnqGEBUgdG-108" value="n" style="ellipse;aspect=fixed;fillColor=#e1d5e7;strokeColor=none;fontSize=25;labelBorderColor=none;labelBackgroundColor=none;horizontal=1;verticalAlign=middle;align=center;spacing=1;html=1;whiteSpace=wrap;" vertex="1" parent="1">
          <mxGeometry x="580" y="440" width="40" height="40" as="geometry" />
        </mxCell>
        <mxCell id="W_i9PqQmD5wnqGEBUgdG-109" value="o" style="ellipse;aspect=fixed;fillColor=#e1d5e7;strokeColor=none;fontSize=25;labelBorderColor=none;labelBackgroundColor=none;horizontal=1;verticalAlign=middle;align=center;spacing=1;html=1;whiteSpace=wrap;" vertex="1" parent="1">
          <mxGeometry x="820" y="440" width="40" height="40" as="geometry" />
        </mxCell>
        <mxCell id="W_i9PqQmD5wnqGEBUgdG-111" value="" style="endArrow=classic;html=1;rounded=0;exitX=0;exitY=1;exitDx=0;exitDy=0;entryX=1;entryY=0;entryDx=0;entryDy=0;" edge="1" source="W_i9PqQmD5wnqGEBUgdG-106" target="W_i9PqQmD5wnqGEBUgdG-108" parent="1">
          <mxGeometry width="50" height="50" relative="1" as="geometry">
            <mxPoint x="850" y="370" as="sourcePoint" />
            <mxPoint x="900" y="320" as="targetPoint" />
          </mxGeometry>
        </mxCell>
        <mxCell id="W_i9PqQmD5wnqGEBUgdG-112" value="" style="endArrow=classic;html=1;rounded=0;exitX=1;exitY=1;exitDx=0;exitDy=0;entryX=0;entryY=0;entryDx=0;entryDy=0;" edge="1" source="W_i9PqQmD5wnqGEBUgdG-106" target="W_i9PqQmD5wnqGEBUgdG-109" parent="1">
          <mxGeometry width="50" height="50" relative="1" as="geometry">
            <mxPoint x="850" y="370" as="sourcePoint" />
            <mxPoint x="900" y="320" as="targetPoint" />
          </mxGeometry>
        </mxCell>
        <mxCell id="W_i9PqQmD5wnqGEBUgdG-113" value="" style="endArrow=classic;html=1;rounded=0;exitX=1;exitY=1;exitDx=0;exitDy=0;entryX=0;entryY=0;entryDx=0;entryDy=0;" edge="1" source="W_i9PqQmD5wnqGEBUgdG-97" target="W_i9PqQmD5wnqGEBUgdG-106" parent="1">
          <mxGeometry width="50" height="50" relative="1" as="geometry">
            <mxPoint x="-27" y="430" as="sourcePoint" />
            <mxPoint x="23" y="380" as="targetPoint" />
          </mxGeometry>
        </mxCell>
        <mxCell id="W_i9PqQmD5wnqGEBUgdG-114" value="x" style="ellipse;aspect=fixed;fillColor=#e1d5e7;strokeColor=none;fontSize=25;labelBorderColor=none;labelBackgroundColor=none;horizontal=1;verticalAlign=middle;align=center;spacing=1;html=1;whiteSpace=wrap;" vertex="1" parent="1">
          <mxGeometry x="60" y="520" width="40" height="40" as="geometry" />
        </mxCell>
        <mxCell id="W_i9PqQmD5wnqGEBUgdG-121" value="y" style="ellipse;aspect=fixed;fillColor=#e1d5e7;strokeColor=none;fontSize=25;labelBorderColor=none;labelBackgroundColor=none;horizontal=1;verticalAlign=middle;align=center;spacing=1;html=1;whiteSpace=wrap;" vertex="1" parent="1">
          <mxGeometry x="140" y="520" width="40" height="40" as="geometry" />
        </mxCell>
        <mxCell id="W_i9PqQmD5wnqGEBUgdG-156" value="" style="endArrow=classic;html=1;rounded=0;exitX=0;exitY=1;exitDx=0;exitDy=0;entryX=1;entryY=0;entryDx=0;entryDy=0;" edge="1" parent="1" source="W_i9PqQmD5wnqGEBUgdG-101" target="W_i9PqQmD5wnqGEBUgdG-114">
          <mxGeometry width="50" height="50" relative="1" as="geometry">
            <mxPoint x="45.860000000000014" y="520" as="sourcePoint" />
            <mxPoint x="95.86000000000001" y="570" as="targetPoint" />
          </mxGeometry>
        </mxCell>
        <mxCell id="W_i9PqQmD5wnqGEBUgdG-157" value="" style="endArrow=classic;html=1;rounded=0;exitX=1;exitY=1;exitDx=0;exitDy=0;entryX=0;entryY=0;entryDx=0;entryDy=0;" edge="1" parent="1" source="W_i9PqQmD5wnqGEBUgdG-101" target="W_i9PqQmD5wnqGEBUgdG-121">
          <mxGeometry width="50" height="50" relative="1" as="geometry">
            <mxPoint x="45.860000000000014" y="520" as="sourcePoint" />
            <mxPoint x="95.86000000000001" y="470" as="targetPoint" />
          </mxGeometry>
        </mxCell>
        <mxCell id="W_i9PqQmD5wnqGEBUgdG-158" value="z" style="ellipse;aspect=fixed;fillColor=#e1d5e7;strokeColor=none;fontSize=25;labelBorderColor=none;labelBackgroundColor=none;horizontal=1;verticalAlign=middle;align=center;spacing=1;html=1;whiteSpace=wrap;" vertex="1" parent="1">
          <mxGeometry x="300" y="520" width="40" height="40" as="geometry" />
        </mxCell>
        <mxCell id="W_i9PqQmD5wnqGEBUgdG-172" value="" style="endArrow=classic;html=1;rounded=0;exitX=0;exitY=1;exitDx=0;exitDy=0;" edge="1" parent="1" source="W_i9PqQmD5wnqGEBUgdG-102" target="W_i9PqQmD5wnqGEBUgdG-158">
          <mxGeometry width="50" height="50" relative="1" as="geometry">
            <mxPoint x="290" y="600" as="sourcePoint" />
            <mxPoint x="340" y="550" as="targetPoint" />
          </mxGeometry>
        </mxCell>
        <mxCell id="W_i9PqQmD5wnqGEBUgdG-181" value="v" style="ellipse;aspect=fixed;fillColor=#e1d5e7;strokeColor=none;fontSize=25;labelBorderColor=none;labelBackgroundColor=none;horizontal=1;verticalAlign=middle;align=center;spacing=1;html=1;whiteSpace=wrap;" vertex="1" parent="1">
          <mxGeometry x="-180" y="520" width="40" height="40" as="geometry" />
        </mxCell>
        <mxCell id="W_i9PqQmD5wnqGEBUgdG-188" value="w" style="ellipse;aspect=fixed;fillColor=#e1d5e7;strokeColor=none;fontSize=25;labelBorderColor=none;labelBackgroundColor=none;horizontal=1;verticalAlign=middle;align=center;spacing=1;html=1;whiteSpace=wrap;" vertex="1" parent="1">
          <mxGeometry x="-100" y="520" width="40" height="40" as="geometry" />
        </mxCell>
        <mxCell id="W_i9PqQmD5wnqGEBUgdG-195" value="" style="endArrow=classic;html=1;rounded=0;exitX=0;exitY=1;exitDx=0;exitDy=0;" edge="1" parent="1" source="W_i9PqQmD5wnqGEBUgdG-92" target="W_i9PqQmD5wnqGEBUgdG-181">
          <mxGeometry width="50" height="50" relative="1" as="geometry">
            <mxPoint x="-140" y="470" as="sourcePoint" />
            <mxPoint x="-90" y="420" as="targetPoint" />
          </mxGeometry>
        </mxCell>
        <mxCell id="W_i9PqQmD5wnqGEBUgdG-196" value="" style="endArrow=classic;html=1;rounded=0;exitX=1;exitY=1;exitDx=0;exitDy=0;entryX=0;entryY=0;entryDx=0;entryDy=0;" edge="1" parent="1" source="W_i9PqQmD5wnqGEBUgdG-92" target="W_i9PqQmD5wnqGEBUgdG-188">
          <mxGeometry width="50" height="50" relative="1" as="geometry">
            <mxPoint x="-100" y="470" as="sourcePoint" />
            <mxPoint x="-50" y="420" as="targetPoint" />
          </mxGeometry>
        </mxCell>
        <mxCell id="W_i9PqQmD5wnqGEBUgdG-197" value="j" style="ellipse;aspect=fixed;fillColor=#e1d5e7;strokeColor=none;fontSize=25;labelBorderColor=none;labelBackgroundColor=none;horizontal=1;verticalAlign=middle;align=center;spacing=1;html=1;whiteSpace=wrap;" vertex="1" parent="1">
          <mxGeometry x="-380" y="440" width="40" height="40" as="geometry" />
        </mxCell>
        <mxCell id="W_i9PqQmD5wnqGEBUgdG-198" value="t" style="ellipse;aspect=fixed;fillColor=#e1d5e7;strokeColor=none;fontSize=25;labelBorderColor=none;labelBackgroundColor=none;horizontal=1;verticalAlign=middle;align=center;spacing=1;html=1;whiteSpace=wrap;" vertex="1" parent="1">
          <mxGeometry x="-420" y="520" width="40" height="40" as="geometry" />
        </mxCell>
        <mxCell id="W_i9PqQmD5wnqGEBUgdG-205" value="u" style="ellipse;aspect=fixed;fillColor=#e1d5e7;strokeColor=none;fontSize=25;labelBorderColor=none;labelBackgroundColor=none;horizontal=1;verticalAlign=middle;align=center;spacing=1;html=1;whiteSpace=wrap;" vertex="1" parent="1">
          <mxGeometry x="-340" y="520" width="40" height="40" as="geometry" />
        </mxCell>
        <mxCell id="W_i9PqQmD5wnqGEBUgdG-212" value="" style="endArrow=classic;html=1;rounded=0;exitX=0;exitY=1;exitDx=0;exitDy=0;" edge="1" source="W_i9PqQmD5wnqGEBUgdG-197" target="W_i9PqQmD5wnqGEBUgdG-198" parent="1">
          <mxGeometry width="50" height="50" relative="1" as="geometry">
            <mxPoint x="-380" y="470" as="sourcePoint" />
            <mxPoint x="-330" y="420" as="targetPoint" />
          </mxGeometry>
        </mxCell>
        <mxCell id="W_i9PqQmD5wnqGEBUgdG-213" value="" style="endArrow=classic;html=1;rounded=0;exitX=1;exitY=1;exitDx=0;exitDy=0;entryX=0;entryY=0;entryDx=0;entryDy=0;" edge="1" source="W_i9PqQmD5wnqGEBUgdG-197" target="W_i9PqQmD5wnqGEBUgdG-205" parent="1">
          <mxGeometry width="50" height="50" relative="1" as="geometry">
            <mxPoint x="-340" y="470" as="sourcePoint" />
            <mxPoint x="-290" y="420" as="targetPoint" />
          </mxGeometry>
        </mxCell>
        <mxCell id="W_i9PqQmD5wnqGEBUgdG-215" value="r" style="ellipse;aspect=fixed;fillColor=#e1d5e7;strokeColor=none;fontSize=25;labelBorderColor=none;labelBackgroundColor=none;horizontal=1;verticalAlign=middle;align=center;spacing=1;html=1;whiteSpace=wrap;" vertex="1" parent="1">
          <mxGeometry x="-660" y="520" width="40" height="40" as="geometry" />
        </mxCell>
        <mxCell id="W_i9PqQmD5wnqGEBUgdG-222" value="s" style="ellipse;aspect=fixed;fillColor=#e1d5e7;strokeColor=none;fontSize=25;labelBorderColor=none;labelBackgroundColor=none;horizontal=1;verticalAlign=middle;align=center;spacing=1;html=1;whiteSpace=wrap;" vertex="1" parent="1">
          <mxGeometry x="-580" y="520" width="40" height="40" as="geometry" />
        </mxCell>
        <mxCell id="W_i9PqQmD5wnqGEBUgdG-229" value="" style="endArrow=classic;html=1;rounded=0;exitX=0;exitY=1;exitDx=0;exitDy=0;" edge="1" parent="1" source="W_i9PqQmD5wnqGEBUgdG-85" target="W_i9PqQmD5wnqGEBUgdG-215">
          <mxGeometry width="50" height="50" relative="1" as="geometry">
            <mxPoint x="-530" y="470" as="sourcePoint" />
            <mxPoint x="-480" y="420" as="targetPoint" />
          </mxGeometry>
        </mxCell>
        <mxCell id="W_i9PqQmD5wnqGEBUgdG-230" value="" style="endArrow=classic;html=1;rounded=0;exitX=1;exitY=1;exitDx=0;exitDy=0;" edge="1" parent="1" source="W_i9PqQmD5wnqGEBUgdG-85" target="W_i9PqQmD5wnqGEBUgdG-222">
          <mxGeometry width="50" height="50" relative="1" as="geometry">
            <mxPoint x="-610" y="470" as="sourcePoint" />
            <mxPoint x="-560" y="420" as="targetPoint" />
          </mxGeometry>
        </mxCell>
        <mxCell id="W_i9PqQmD5wnqGEBUgdG-231" value="h" style="ellipse;aspect=fixed;fillColor=#e1d5e7;strokeColor=none;fontSize=25;labelBorderColor=none;labelBackgroundColor=none;horizontal=1;verticalAlign=middle;align=center;spacing=1;html=1;whiteSpace=wrap;" vertex="1" parent="1">
          <mxGeometry x="-854.1400000000001" y="440" width="40" height="40" as="geometry" />
        </mxCell>
        <mxCell id="W_i9PqQmD5wnqGEBUgdG-232" value="p" style="ellipse;aspect=fixed;fillColor=#e1d5e7;strokeColor=none;fontSize=25;labelBorderColor=none;labelBackgroundColor=none;horizontal=1;verticalAlign=middle;align=center;spacing=1;html=1;whiteSpace=wrap;" vertex="1" parent="1">
          <mxGeometry x="-900.0000000000001" y="520" width="40" height="40" as="geometry" />
        </mxCell>
        <mxCell id="W_i9PqQmD5wnqGEBUgdG-239" value="q" style="ellipse;aspect=fixed;fillColor=#e1d5e7;strokeColor=none;fontSize=25;labelBorderColor=none;labelBackgroundColor=none;horizontal=1;verticalAlign=middle;align=center;spacing=1;html=1;whiteSpace=wrap;" vertex="1" parent="1">
          <mxGeometry x="-820.0000000000001" y="520" width="40" height="40" as="geometry" />
        </mxCell>
        <mxCell id="W_i9PqQmD5wnqGEBUgdG-246" value="" style="endArrow=classic;html=1;rounded=0;exitX=0;exitY=1;exitDx=0;exitDy=0;" edge="1" source="W_i9PqQmD5wnqGEBUgdG-231" target="W_i9PqQmD5wnqGEBUgdG-232" parent="1">
          <mxGeometry width="50" height="50" relative="1" as="geometry">
            <mxPoint x="-774.1400000000001" y="470" as="sourcePoint" />
            <mxPoint x="-724.1400000000001" y="420" as="targetPoint" />
          </mxGeometry>
        </mxCell>
        <mxCell id="W_i9PqQmD5wnqGEBUgdG-247" value="" style="endArrow=classic;html=1;rounded=0;exitX=1;exitY=1;exitDx=0;exitDy=0;" edge="1" source="W_i9PqQmD5wnqGEBUgdG-231" target="W_i9PqQmD5wnqGEBUgdG-239" parent="1">
          <mxGeometry width="50" height="50" relative="1" as="geometry">
            <mxPoint x="-854.1400000000001" y="470" as="sourcePoint" />
            <mxPoint x="-804.1400000000001" y="420" as="targetPoint" />
          </mxGeometry>
        </mxCell>
      </root>
    </mxGraphModel>
  </diagram>
</mxfile>
